<?xml version="1.0" encoding="iso-8859-1"?>
<!-- Generator: Adobe Illustrator 19.0.0, SVG Export Plug-In . SVG Version: 6.00 Build 0)  -->
<svg version="1.1" id="Layer_1" xmlns="http://www.w3.org/2000/svg" xmlns:xlink="http://www.w3.org/1999/xlink" x="0px" y="0px"
	 viewBox="0 0 512 512" style="enable-background:new 0 0 512 512;" xml:space="preserve">
<g transform="translate(0 -1)">
	<g>
		<polygon style="fill:#464F5D;" points="256,124.586 141.241,124.586 141.241,513 370.759,513 370.759,124.586 		"/>
		<polygon style="fill:#464F5D;" points="256,71.621 370.759,71.621 370.759,1 141.241,1 141.241,71.621 		"/>
	</g>
	<g>
		<path style="fill:#FFFFFF;" d="M256,177.552c-4.873,0-8.828-3.946-8.828-8.828v-17.655c0-4.882,3.955-8.828,8.828-8.828
			s8.828,3.946,8.828,8.828v17.655C264.828,173.606,260.873,177.552,256,177.552"/>
		<path style="fill:#FFFFFF;" d="M256,268.284c-4.873,0-8.828-3.946-8.828-8.828v-36.29c0-4.882,3.955-8.828,8.828-8.828
			s8.828,3.946,8.828,8.828v36.29C264.828,264.338,260.873,268.284,256,268.284 M256,359.005c-4.873,0-8.828-3.946-8.828-8.828
			v-36.29c0-4.882,3.955-8.828,8.828-8.828s8.828,3.946,8.828,8.828v36.29C264.828,355.059,260.873,359.005,256,359.005
			 M256,449.744c-4.873,0-8.828-3.955-8.828-8.828v-36.299c0-4.873,3.955-8.828,8.828-8.828s8.828,3.955,8.828,8.828v36.299
			C264.828,445.789,260.873,449.744,256,449.744"/>
	</g>
	<g>
		<polygon style="fill:#95A5A5;" points="44.138,142.239 97.103,142.239 97.103,53.963 44.138,53.963 		"/>
		<polygon style="fill:#95A5A5;" points="414.897,142.239 467.862,142.239 467.862,53.963 414.897,53.963 		"/>
	</g>
	<polygon style="fill:#ECF0F1;" points="256,71.621 97.103,71.621 97.103,124.586 256,124.586 414.897,124.586 414.897,71.621 	"/>
	<g>
		<path style="fill:#C03A2B;" d="M361.453,71.621l-16.728,50.176c-0.309,0.927-0.344,1.863-0.344,2.79h18.026l16.728-50.176
			c0.309-0.927,0.344-1.863,0.344-2.79H361.453z"/>
		<path style="fill:#C03A2B;" d="M317.315,71.621l-16.728,50.176c-0.309,0.927-0.344,1.863-0.344,2.79h18.026l16.728-50.176
			c0.309-0.927,0.344-1.863,0.344-2.79H317.315z"/>
		<path style="fill:#C03A2B;" d="M273.177,71.621l-16.728,50.176c-0.309,0.927-0.344,1.863-0.344,2.79h18.026l16.728-50.176
			c0.309-0.927,0.344-1.863,0.344-2.79H273.177z"/>
		<path style="fill:#C03A2B;" d="M229.039,71.621l-16.728,50.176c-0.309,0.927-0.344,1.863-0.344,2.79h18.026L246.72,74.41
			c0.309-0.927,0.344-1.863,0.344-2.79H229.039z"/>
		<path style="fill:#C03A2B;" d="M184.901,71.621l-16.728,50.176c-0.309,0.927-0.344,1.863-0.344,2.79h18.026l16.728-50.176
			c0.309-0.927,0.344-1.863,0.344-2.79H184.901z"/>
		<path style="fill:#C03A2B;" d="M140.763,71.621l-16.728,50.176c-0.309,0.927-0.344,1.863-0.344,2.79h18.026l16.728-50.176
			c0.309-0.927,0.344-1.863,0.344-2.79H140.763z"/>
	</g>
</g>
<g>
</g>
<g>
</g>
<g>
</g>
<g>
</g>
<g>
</g>
<g>
</g>
<g>
</g>
<g>
</g>
<g>
</g>
<g>
</g>
<g>
</g>
<g>
</g>
<g>
</g>
<g>
</g>
<g>
</g>
</svg>
